<?xml version="1.0" encoding="UTF-8"?>
<svg id="Calque_1" xmlns="http://www.w3.org/2000/svg" version="1.1" viewBox="0 0 171 170">
  <!-- Generator: Adobe Illustrator 29.1.0, SVG Export Plug-In . SVG Version: 2.1.0 Build 142)  -->
  <defs>
    <style>
      .st0 {
        fill: #2a4b9b;
      }
    </style>
  </defs>
  <path class="st0" d="M8.4,87.9C6.8,53.7,29.8,22.8,62.4,13.7c16.6-4.6,33.9-3.6,49.7,3.2,3.7-3,7-6.1,12-6.6,13.2-1.5,22.9,8.6,21.2,21.7-.4,3.1-2.7,5.6-3.2,8.6,10.3,13.4,15.7,30.4,14.8,47.3h-38.8v7.9c0,.2-.8,1-.5,1.7,5.3.8,10.1.2,15.3-.4,1.1,5.1.7,10.4-.9,15.3,7.1-3.6,14.1-6.3,22-7.2l-1.1,5.2c-10.9,1.4-18.7,7.8-29.9,8.7-13.2,1-18-3.8-29.2-7.1-21.8-6.5-33.1,9.8-55,6.6-9.6-1.4-16.9-7.4-26.6-8.1l-1-5.2c7.7.7,14.4,3.5,21.3,6.7l.7-.7c-.2-.9-1.4-3.2-1.4-3.9v-9.1c0,0,.5-1.1.8-1.2,4.9.8,9.5,1.3,14.5.5v-9.6H8.4ZM137.6,37.4c11.1-13.8-8.6-30.4-20.4-18.3-13,13.3,8.8,32.7,20.4,18.3ZM152.2,83.1c-.1-14.2-5.5-27.5-13.4-39.1-.8-.5-3.7,1.6-4.8,2-15.5,5.6-30-8.8-24-24l-.2-.7C65.3,2.2,14.3,34.9,13.2,83.1h34v-16.1c0-.1.6-.3.5-.7-1-.8-10.7,6.5-12.7,6.7-.9.1-.6-.2-.8-.6-.3-.5-1.9-3.5-1.8-3.7l50.5-28.2,50.1,28.5c0,.4-1.4,2.8-1.8,3.4-.2.4.1.8-.8.6l-12.7-6.7c-.2.5.5,1.1.5,1.2v15.6h34,0ZM113.3,96.5v-32.8l-30.9-17.5-30.4,17.6c0,.8.5,1.5.4,2.3-.5,7.3-.3,14.7-.5,22.1,0,2.8,0,5.6,0,8.4,11.7-2,22.2-9,30.5-17.2,3,2.4,5.7,5.1,8.8,7.3,6.5,4.7,14,8.5,22,9.9h0ZM129.1,102.7c-17.1,1.1-33.8-5.1-46.2-16.7-8.9,7.3-18.5,13-29.9,15.5-5.6,1.2-11.1,1.2-16.8,1.4.4,2.3,1.9,9.9,4.2,10.7,4.4,1.4,13.7-.2,18.2-1.7,12.1-4.2,14.9-7.3,29.2-6.3,11.5.8,19.9,8.8,32.1,8.7,1,0,4.3-.3,5.2-.6,2.2-.7,3.9-8.6,4.2-10.9h0Z"/>
  <path class="st0" d="M146.4,123.3c-1,4.2-4.7,6.9-8.4,8.6-7.4,3.4-16.7,4.4-24.8,3.4-10.8-1.3-18.4-8.6-30.3-8.6s-14.6,3.9-23,6.8c-9.4,3.2-21.6,2.8-30.8-.8-4.6-1.8-8.3-4.1-10.2-9,4.5,0,8.6,3.1,12.6,4.6,8.2,3.1,18.2,3.3,26.6.5,9.9-3.4,14.5-7.2,26.2-6.8,17.7.6,26.3,13.5,46.6,7.3,5.3-1.6,9.9-4.9,15.4-5.9h0Z"/>
  <path class="st0" d="M123.4,147.3c-1.8,1.9-6.2,4.9-8.8,4.8-8.8-.1-16.6-6.7-25.1-8-3.2-.5-9.1-.5-12.3-.1-9,1.1-18,8.4-26.8,8.2-2.3,0-6.8-3.1-8.4-4.8h8.9c6,0,14.2-5.5,20.1-7.2,6.9-1.9,16.9-1.8,23.8.1,5.8,1.6,13.9,7.1,19.8,7.1h8.9,0Z"/>
  <path class="st0" d="M97.5,157.4l-.8,1.3c-9.6,1.6-19.3,1.2-28.9.1v-1.4c6.3-1.2,12.4-2.4,18.9-1.9,3.7.3,7.2,1.6,10.8,1.9h0Z"/>
</svg>