<?xml version="1.0" encoding="UTF-8"?>
<svg id="Calque_1" xmlns="http://www.w3.org/2000/svg" version="1.1" viewBox="0 0 595.28 841.89">
  <!-- Generator: Adobe Illustrator 29.1.0, SVG Export Plug-In . SVG Version: 2.1.0 Build 142)  -->
  <defs>
    <style>
      .st0 {
        fill: #098ab7;
      }
    </style>
  </defs>
  <path class="st0" d="M650.05,376.88c-3.47,1.89-6.96,3.82-10.47,5.79-5.12,2.88-10.14,5.77-15.06,8.66.23-1.28.46-2.55.68-3.83,4.23-2.76,8.46-5.52,12.69-8.28.15-14.98-1.06-27.66,5.44-41.56.65-1.39,17.17-31.68,50.09-32.66,27.32-.82,48.53,19.08,56.66,39.34,5.85,14.58,4.4,28.02,3.12,34.88,4.41,2.81,8.83,5.61,13.24,8.42.02.99.07,2.02.15,3.07.02.29.05.57.07.85-4.03-2.11-8.15-4.36-12.35-6.76-4.62-2.64-9.05-5.29-13.27-7.93v46c1.59.63,8-2.63,8-3.5v-32.5c1.64.72,3.83,1.37,4.01,3.49-1.94,27.81,6.29,59.18-10.58,83.44-21.21,30.5-67.86,32.27-91.41,3.54-20.7-25.26-10.91-59.14-12.86-89.31l2.83-1.17v35.99s9.01-3.49,9.01-3.49v-42.5ZM694.06,308.87c-7.31-.64-14.44,1.49-20.99,4.49,1.87,1.97,4.86,10.5,7.29,10.36l13.27-3.78.44-11.07ZM712.01,323.87c-.2-2.75,6.25-8.94,4.62-11.03-6.11-2.86-12.81-4.51-19.58-3.96v12.01s14.97,2.99,14.97,2.99ZM675.98,326.78l-6.42-11.87c-3.04,1.94-15.55,10.21-15.57,13.48,0,2.21,9.84,6.94,12.43,7.57,2.51-3.56,5.39-7.55,9.56-9.18ZM736.99,329.79c2.07-2.99-15.58-15.91-16.93-14.91l-4.96,11.36c3.51,1.13,7.26,8.1,8.93,9.18,2.54,1.64,9.72-5.03,12.95-5.64ZM726.04,362.87c7.3-51.08-67.61-51.95-61.98,0l31.33-18.83,30.65,18.84ZM642.05,353.88h18l4.01-14.98-12.51-6.91c-5.55,5.81-7.92,14.18-9.49,21.89ZM748.05,353.88c-.14-5.4-2.91-15.11-6.12-19.38-3.42-4.55-10.62,4.03-14.82,4.45.72,2.41,1.41,4.97,2.05,7.68.59,2.52,1.07,4.94,1.48,7.25,5.8,0,11.61,0,17.41-.01ZM737.05,386.88c-.57-3.7,1.26-10.76-1.01-13.49l-40.48-24.44-42.38,25.13-.12,12.81h24c.09-25.86,37.28-26.4,36,0h24ZM641.05,361.38c-.75,4.55.54,10.73,0,15.5l19.35-10.9.76-1.59-1.72-7.57c-5.89,1.22-17.1-3.29-18.39,4.56ZM749.05,376.88c-.24-6.68-.47-13.36-.71-20.03h0c-5.77,0-11.53,0-17.3,0,0,1.19-.09,2.64-.41,4.26-.29,1.49-.69,2.77-1.1,3.81,2.69,1.9,5.59,3.83,8.68,5.75,3.74,2.32,7.37,4.38,10.83,6.2ZM710.05,423.88v-41.5c0-.62-2.14-4.33-2.76-5.24-7.68-11.49-25.08-6.53-26.29,7.19-.97,10.99.83,23.4.04,34.55l29.01,5ZM677.05,390.88h-22.5c-2.46,0-1.28,7.48-.5,9h23v-9ZM737.05,390.88h-24c0,1.67-.59,9,1.5,9h22.5v-9ZM677.05,402.88h-23c-.78,1.52-1.96,9,.5,9h22.5v-9ZM737.05,402.88h-22.5c-2.09,0-1.5,7.33-1.5,9h24v-9ZM677.05,415.88h-22.5c-.61,0-2.09,2.4-1.5,2.99,1.73-.15,2.59-.22,2.59-.21,0,0,0,0,0,0,7.14-.26,14.27-.52,21.41-.79v-2ZM737.05,415.88h-24l.94,8.55c7.78,1.37,15.26.78,23.07.45v-9ZM702.05,425.89c-12.75-2.07-26.36-6.01-39.37-4.89-4.35.38-20.01,3.58-21.19,7.79-1.87,6.65.8,14.36.56,21.1,18.73.45,33.48-12.56,49.65-19.86l10.35-4.13ZM749.05,440.88v-17c-2.6,1.3-5.36,2.57-8.2,3.3-1.31.34-6.64,1.7-7.3,1.7-10.73,1.17-15.14.43-17.07-.6-.34-.18-2-1.13-2.3-.77-.22.27.38,1.15.91,1.83,10.15,7.56,20.87,12.88,33.96,11.54ZM749.06,444.88c-6.54-.21-13.34-.9-19.54-2.97-8.54-2.85-17.12-12.46-25.82-11.98-10.29.57-27.81,13.65-37.96,18.12-7.47,3.28-12.05,3.7-19.7,5.32-5.79,1.23-2.9,3.21,1.47,3.55,15.35,1.2,32.74-7.98,47.34-11.76,18.23-4.73,35.99-4.88,52.72,4.69l1.5-4.97ZM747.05,452.89c-19.68-9.88-37.36-8.18-57.78-2.3-15.68,4.51-25.41,7.21-41.69,10.32-.99.19-2.11-.59-1.5,1.44.37,1.24,4.82,8.97,5.76,9.5,5.54,3.12,24.31,5.74,30.73,5.03,21.11-2.32,38.71-41.05,64-22.02l.49-1.98ZM705.06,469.87c11.69-3.47,22.74-1.92,34.32.9,1.68-.54,6.54-9.73,6.36-11.42-13.08-12.84-28.55-1.4-39.4,8.25-.66.59-1.93-.07-1.28,2.28ZM737.05,473.89c-21.08-6.91-38.4,3.36-58.49,7.06l-22.5-3.57c5.05,5.81,22.78,17.59,29.95,14.98,2.52-.92,6.49-4.86,9.67-6.35,4.35-2.04,12.04-4.07,16.77-4.02,3.17.03,11.91,2.97,13.64,2.49,2.08-.58,11.72-9.99,10.96-10.58ZM721.05,486.89c-10.24-2.55-22.37-.65-30,6.98,9.61.85,22.5-.31,30-6.98Z"/>
  <path class="st0" d="M693.13,361.81c-1.61-1.14-1.03-8.66,3.98-5.48,3.32,2.11-.88,7.68-3.98,5.48Z"/>
</svg>